#!OML:ASF E:\Mandelcareful walks\Project 1\Capture day 1\Session 1\Subject1.ASF
:FULLY-SPECIFIED
:DEGREES
394
root -13.2237 14.0302 0.646962 -203.59 74.62 135.076
lowerback 24.2909 5.81333 -3.77185
upperback 8.08554 7.17438 -3.74695
thorax -4.4106 3.84585 -3.91789
lowerneck -25.2528 -12.0076 -13.9444
upperneck 10.4491 -12.8751 8.35399
head 8.71347 -5.813 3.04141
rclavicle -1.01778e-013 5.08889e-014
rhumerus -46.2744 25.4074 -86.0922
rradius 71.3847
rwrist -12.9334
rhand -35.5517 -29.0491
rfingers 7.12502
rthumb -8.67718 -58.8508
lclavicle -1.01778e-013 5.08889e-014
lhumerus -32.7472 28.8475 37.0843
lradius 30.3882
lwrist -21.2534
lhand -48.8818 -27.4274
lfingers 7.12502
lthumb -21.5155 1.39756
rfemur -47.0271 -29.2345 -7.40655
rtibia 68.9708
rfoot -26.7101 -4.36522
rtoes -22.6594
lfemur -63.3886 4.76759 -26.9951
ltibia 74.9773
lfoot -27.2894 7.43228
ltoes -10.8683
395
root -13.2094 14.046 0.637683 -203.444 74.5811 135.376
lowerback 24.3431 5.84527 -3.88889
upperback 8.16864 7.20318 -3.59021
thorax -4.37822 3.85848 -3.69135
lowerneck -25.3923 -11.9588 -13.9163
upperneck 10.6382 -12.7509 8.07627
head 8.76283 -5.77849 2.95774
rclavicle 4.29375e-014 1.59028e-015
rhumerus -46.1833 25.3739 -85.835
rradius 71.3182
rwrist -12.794
rhand -35.2295 -29.1425
rfingers 7.12502
rthumb -8.36622 -58.9568
lclavicle 4.29375e-014 1.59028e-015
lhumerus -32.8907 28.9689 37.3128
lradius 30.599
lwrist -21.0983
lhand -48.5336 -26.8618
lfingers 7.12502
lthumb -21.181 2.00111
rfemur -46.5817 -29.1051 -7.47558
rtibia 68.6817
rfoot -26.5605 -4.51323
rtoes -23.3714
lfemur -63.0498 4.75497 -26.9492
ltibia 74.833
lfoot -27.3136 7.34975
ltoes -10.596
396
root -13.1889 14.0711 0.627298 -202.811 74.3927 136.315
lowerback 24.5841 5.78838 -3.75104
upperback 8.23499 7.16511 -3.52148
thorax -4.41838 3.84486 -3.70507
lowerneck -25.3591 -11.8495 -13.6707
upperneck 10.7629 -12.6634 7.87733
head 8.76095 -5.75103 2.86956
rclavicle -2.38542e-014 9.54166e-015
rhumerus -46.2584 25.1289 -85.8781
rradius 71.2331
rwrist -12.6485
rhand -35.5978 -28.9593
rfingers 7.12502
rthumb -8.7217 -58.7591
lclavicle -2.38542e-014 9.54166e-015
lhumerus -32.9369 28.5065 37.5436
lradius 30.8347
lwrist -20.7364
lhand -48.1309 -26.8749
lfingers 7.12502
lthumb -20.7942 2.0309
rfemur -45.7501 -29.0908 -7.56536
rtibia 68.3024
rfoot -26.3974 -4.70446
rtoes -24.5075
lfemur -62.4756 4.55056 -26.8021
ltibia 74.6276
lfoot -27.3351 7.35031
ltoes -10.425
397
root -13.1692 14.0935 0.609553 -202.061 74.2624 137.271
lowerback 24.7122 5.70933 -3.48109
upperback 8.28247 7.13007 -3.53759
thorax -4.39802 3.83543 -3.87241
lowerneck -25.3498 -11.7445 -13.3554
upperneck 10.8541 -12.6126 7.73844
head 8.75569 -5.73069 2.78487
rclavicle -1.59028e-014 6.83819e-014
rhumerus -46.2292 24.9677 -85.996
rradius 71.0582
rwrist -12.7037
rhand -35.7787 -28.8725
rfingers 7.12502
rthumb -8.89624 -58.6649
lclavicle -1.59028e-014 6.83819e-014
lhumerus -32.8937 27.6008 37.8612
lradius 30.9725
lwrist -20.2453
lhand -48.158 -26.6617
lfingers 7.12502
lthumb -20.8202 2.24124
rfemur -45.0328 -29.0893 -7.61281
rtibia 67.8864
rfoot -26.4137 -4.79398
rtoes -24.5119
lfemur -62.0368 4.35082 -26.6558
ltibia 74.4349
lfoot -27.3924 7.37066
ltoes -10.0927
398
root -13.1565 14.1089 0.589149 -201.706 74.1992 137.637
lowerback 24.7008 5.66052 -3.42559
upperback 8.31704 7.08758 -3.55024
thorax -4.34805 3.81837 -3.90067
lowerneck -25.499 -11.6796 -13.3346
upperneck 10.9409 -12.5238 7.78016
head 8.8022 -5.67992 2.80615
rclavicle -7.4743e-014 5.88403e-014
rhumerus -45.9709 24.9872 -85.9089
rradius 70.8661
rwrist -12.626
rhand -35.1931 -29.2766
rfingers 7.12502
rthumb -8.33113 -59.0923
lclavicle -7.4743e-014 5.88403e-014
lhumerus -32.9357 27.1495 38.1173
lradius 30.9305
lwrist -20.2078
lhand -48.3853 -26.1008
lfingers 7.12502
lthumb -21.0386 2.77797
rfemur -44.6766 -29.0715 -7.69845
rtibia 67.509
rfoot -26.4996 -4.77972
rtoes -23.6821
lfemur -61.877 4.2416 -26.6692
ltibia 74.2836
lfoot -27.4136 7.36276
ltoes -9.73923
399
root -13.1491 14.1245 0.570485 -201.591 74.2337 137.703
lowerback 24.7012 5.69637 -3.50455
upperback 8.29189 7.11072 -3.58428
thorax -4.37882 3.82845 -3.90256
lowerneck -25.651 -11.5886 -13.2105
upperneck 11.0858 -12.4221 7.73342
head 8.85485 -5.62846 2.78371
rclavicle -1.43125e-014 7.95139e-014
rhumerus -45.7813 24.8827 -85.8347
rradius 70.6658
rwrist -12.2813
rhand -34.2481 -29.4494
rfingers 7.12502
rthumb -7.41901 -59.2993
lclavicle -1.43125e-014 7.95139e-014
lhumerus -32.9989 26.571 38.4334
lradius 31.1347
lwrist -19.9805
lhand -48.3959 -25.8779
lfingers 7.12502
lthumb -21.0488 2.99977
rfemur -44.5028 -28.918 -7.73732
rtibia 67.1535
rfoot -26.4162 -4.82258
rtoes -23.6562
lfemur -61.8203 4.22362 -26.7066
ltibia 74.1372
lfoot -27.335 7.38936
ltoes -9.74253
400
root -13.137 14.1443 0.550649 -201.338 74.2746 137.888
lowerback 24.5602 5.77285 -3.57545
upperback 8.2646 7.19443 -3.63215
thorax -4.33798 3.86835 -3.9243
lowerneck -25.7242 -11.45 -12.8739
upperneck 11.2113 -12.3064 7.5159
head 8.86111 -5.58205 2.67731
rclavicle -6.83819e-014 -7.95139e-015
rhumerus -45.7124 24.7713 -85.9338
rradius 70.3429
rwrist -12.1609
rhand -34.1473 -28.9453
rfingers 7.12502
rthumb -7.32173 -58.7986
lclavicle -6.83819e-014 -7.95139e-015
lhumerus -32.951 25.4133 38.9808
lradius 31.6652
lwrist -19.0596
lhand -48.212 -26.1158
lfingers 7.12502
lthumb -20.8721 2.78143
rfemur -44.2949 -28.7686 -7.71863
rtibia 66.7846
rfoot -26.3427 -4.9137
rtoes -23.8085
lfemur -61.7375 4.19275 -26.7068
ltibia 73.964
lfoot -27.2411 7.45253
ltoes -9.97957
401
root -13.1171 14.1704 0.529807 -200.713 74.1585 138.505
lowerback 24.4267 5.75026 -3.65268
upperback 8.28329 7.16086 -3.58752
thorax -4.26822 3.85131 -3.80707
lowerneck -25.9261 -11.3157 -12.8406
upperneck 11.4271 -12.0962 7.40149
head 8.93665 -5.48961 2.66181
rclavicle -9.54166e-015 3.18055e-015
rhumerus -45.6123 24.8704 -86.0238
rradius 69.9497
rwrist -12.1918
rhand -34.7217 -28.3507
rfingers 7.12502
rthumb -7.87616 -58.184
lclavicle -9.54166e-015 3.18055e-015
lhumerus -32.971 24.0716 39.7493
lradius 32.4003
lwrist -17.5335
lhand -46.8036 -24.5935
lfingers 7.12502
lthumb -19.5185 4.44676
rfemur -43.8239 -28.7544 -7.72391
rtibia 66.3741
rfoot -26.3432 -5.02313
rtoes -23.5887
lfemur -61.5214 4.06838 -26.6827
ltibia 73.7532
lfoot -27.2441 7.40381
ltoes -9.88098
402
root -13.0959 14.1969 0.506386 -199.887 74.047 139.419
lowerback 24.4347 5.68257 -3.67851
upperback 8.34375 7.08223 -3.48675
thorax -4.225 3.81362 -3.65832
lowerneck -26.493 -11.1894 -12.8688
upperneck 11.9291 -11.8157 7.19099
head 9.15956 -5.36822 2.61987
rclavicle -5.40694e-014 -5.56597e-014
rhumerus -45.3851 24.9186 -85.9733
rradius 69.5856
rwrist -12.0079
rhand -34.5051 -28.3367
rfingers 7.12502
rthumb -7.66709 -58.1778
lclavicle -5.40694e-014 -5.56597e-014
lhumerus -32.9551 22.4384 40.9046
lradius 33.4955
lwrist -15.4507
lhand -43.668 -21.5604
lfingers 7.12502
lthumb -16.5015 7.75786
rfemur -43.2115 -28.7 -7.68763
rtibia 65.9325
rfoot -26.342 -5.21679
rtoes -23.4866
lfemur -61.21 3.95341 -26.5776
ltibia 73.5508
lfoot -27.2755 7.26945
ltoes -9.65709
403
root -13.0775 14.2146 0.479577 -199.243 74.1076 140.056
lowerback 24.2409 5.71251 -3.70363
upperback 8.42172 7.13856 -3.45457
thorax -4.04964 3.84371 -3.59643
lowerneck -27.1127 -10.857 -12.4641
upperneck 12.2825 -11.3229 6.65397
head 9.27122 -5.16325 2.44159
rclavicle 3.18055e-015 -3.49861e-014
rhumerus -45.0728 24.7492 -85.879
rradius 69.2123
rwrist -11.6023
rhand -33.7686 -28.4776
rfingers 7.12502
rthumb -6.95621 -58.3433
lclavicle 3.18055e-015 -3.49861e-014
lhumerus -32.7334 21.1861 41.8812
lradius 33.8128
lwrist -14.5109
lhand -43.285 -26.5977
lfingers 7.12502
lthumb -16.1328 2.7509
rfemur -42.8841 -28.5688 -7.57957
rtibia 65.5049
rfoot -26.2231 -5.38135
rtoes -23.4909
lfemur -61.0557 3.94731 -26.4648
ltibia 73.4169
lfoot -27.3491 7.09179
ltoes -9.17067
404
root -13.0596 14.2308 0.452133 -198.846 74.1593 140.425
lowerback 23.9682 5.78714 -3.85423
upperback 8.47237 7.22402 -3.44313
thorax -3.87577 3.88532 -3.4887
lowerneck -27.2143 -10.3393 -11.869
upperneck 12.3056 -10.6808 5.98376
head 9.15888 -4.90885 2.23458
rclavicle -3.33958e-014 4.6118e-014
rhumerus -44.7635 24.6665 -85.8193
rradius 68.6692
rwrist -11.1313
rhand -33.3444 -28.2863
rfingers 7.12502
rthumb -6.54671 -58.1651
lclavicle -3.33958e-014 4.6118e-014
lhumerus -32.3553 19.0902 43.2502
lradius 34.4474
lwrist -12.2175
lhand -41.7202 -25.4077
lfingers 7.12502
lthumb -14.6256 4.05651
rfemur -42.6031 -28.45 -7.564
rtibia 65.0752
rfoot -25.9207 -5.46323
rtoes -23.4478
lfemur -60.9165 3.94171 -26.4159
ltibia 73.3164
lfoot -27.522 6.85577
ltoes -8.25558
